<svg id="a" xmlns="http://www.w3.org/2000/svg" viewBox="0 0 731 119" width="731px" height="119px"><path d="M320.14,45.73c-5.89,0-10.47,1.98-13.6,6.1v-21.78h-10.81v58.81h10.84v-4.89c3.13,4.12,7.71,6.1,13.6,6.1,5.52.07,10.79-2.27,14.43-6.41,8.04-8.95,8.04-22.53,0-31.47-3.66-4.14-8.94-6.5-14.47-6.46ZM326.39,76.43c-2.2,2.2-5.21,3.4-8.32,3.29-3.09.12-6.09-1.07-8.25-3.29-2.21-2.29-3.39-5.38-3.29-8.56-.26-6.28,4.62-11.57,10.89-11.83.22,0,.45-.01.67,0,3.13-.13,6.16,1.1,8.32,3.37,2.2,2.27,3.41,5.32,3.37,8.47.12,3.19-1.1,6.29-3.36,8.56h-.04Z" style="fill:#000064; stroke-width:0px;"/><path d="M194.36,67.49h16.93c-2.33,6.61-8.3,11.54-16.97,11.54-11.19,0-19.09-8.63-19.09-19.55s7.83-19.55,18.77-19.55c6.99-.07,13.43,3.8,16.65,10.01l9.8-5.64c-8.43-14.6-27.09-19.6-41.69-11.17-14.6,8.43-19.6,27.09-11.17,41.69,5.45,9.44,15.51,15.25,26.41,15.26,16.88,0,29.79-12.59,29.79-29.7v-3.05h-29.4l-.02,10.17Z" style="fill:#000064; stroke-width:0px;"/><path d="M268.08,45.73c-12.09.18-21.75,10.13-21.57,22.22.18,12.09,10.13,21.75,22.22,21.57,12.09-.18,21.75-10.13,21.57-22.22-.08-5.7-2.39-11.14-6.42-15.17-4.17-4.21-9.88-6.53-15.81-6.41ZM276.22,76.2c-2.13,2.19-5.08,3.38-8.14,3.29-3.05.05-5.98-1.14-8.14-3.29-2.17-2.21-3.31-5.23-3.13-8.32-.1-3.07,1.01-6.06,3.1-8.32,2.11-2.22,5.08-3.42,8.14-3.29,3.04-.05,5.98,1.14,8.14,3.29,2.19,2.2,3.35,5.22,3.2,8.32.12,3.08-1.01,6.08-3.13,8.32h-.04Z" style="fill:#000064; stroke-width:0px;"/><rect x="229.66" y="30.08" width="10.84" height="58.81" style="fill:#000064; stroke-width:0px;"/><path d="M378.12,51.84c-3.29-4.12-7.79-6.1-13.67-6.1-5.51-.05-10.77,2.29-14.43,6.41-3.99,4.25-6.14,9.91-5.96,15.74-.14,5.82,2,11.47,5.96,15.74,3.64,4.15,8.92,6.49,14.43,6.41,5.88,0,10.39-1.98,13.67-6.1v4.96h10.84v-42.01h-10.84v4.96ZM374.75,76.43c-4.69,4.37-11.95,4.37-16.64,0-4.29-4.87-4.29-12.16,0-17.03,2.17-2.25,5.2-3.47,8.32-3.37,3.13-.12,6.16,1.11,8.32,3.37,2.23,2.25,3.45,5.31,3.37,8.47.1,3.2-1.13,6.31-3.42,8.56h.05Z" style="fill:#000064; stroke-width:0px;"/><path d="M495.61,45.73c-12.16.11-21.93,10.06-21.82,22.23s10.06,21.93,22.23,21.82c12.16-.11,21.93-10.06,21.82-22.23-.05-5.79-2.39-11.33-6.49-15.41-4.14-4.21-9.83-6.53-15.74-6.41ZM503.74,76.2c-2.13,2.19-5.08,3.39-8.14,3.29-3.06.12-6.02-1.08-8.14-3.29-2.16-2.22-3.35-5.22-3.29-8.32-.11-3.11,1.08-6.13,3.29-8.32,4.51-4.38,11.68-4.38,16.18,0,4.37,4.69,4.37,11.95,0,16.64h.09Z" style="fill:#000064; stroke-width:0px;"/><path d="M682.73,79.26c-3.02.1-5.96-1.03-8.14-3.13-2.16-2.19-3.3-5.18-3.13-8.25,0-6.72,4.74-11.54,11.19-11.54,4.01-.12,7.72,2.09,9.54,5.66l9.32-5.42c-3.43-6.64-10.61-10.84-18.79-10.84-5.94-.18-11.69,2.11-15.88,6.34-4.2,4.16-6.47,9.9-6.27,15.81-.15,5.88,2.11,11.57,6.27,15.74,8.77,8.64,22.89,8.53,31.53-.24,1.26-1.28,2.37-2.72,3.29-4.26l-9.31-5.31c-1.68,3.4-5.27,5.46-9.62,5.46Z" style="fill:#000064; stroke-width:0px;"/><path d="M636.22,45.73c-6.5,0-11.77,2.03-15.97,6.34-8.28,8.96-8.24,22.78.08,31.7,4.2,4.2,9.78,6.26,16.72,6.26,8.03,0,14.24-3.05,18.31-9.01l-8.71-5.04c-2.03,2.83-5.27,4.2-9.4,4.2-6.56,0-10.46-2.59-11.84-7.87h31.63c.3-1.46.45-2.94.46-4.43.14-5.86-2.02-11.54-6.03-15.81-3.92-4.23-9.49-6.54-15.25-6.34ZM625.21,63.91c1.23-5.35,5.2-8.48,11.01-8.48,5.1-.18,9.54,3.45,10.39,8.48h-21.39Z" style="fill:#000064; stroke-width:0px;"/><path d="M731,57.26v-10.39h-9.47v-11.73l-10.84,3.29v8.47h-7.25v10.39h7.25v17.5c0,9.93,4.07,14.51,14.66,14.51,1.89-.03,3.78-.15,5.66-.38v-9.86c-1.22.08-2.29.08-3.29.08-4.07,0-6.18-.76-6.18-4.35v-17.5l9.47-.03Z" style="fill:#000064; stroke-width:0px;"/><rect x="396.63" y="30.08" width="10.84" height="58.81" style="fill:#000064; stroke-width:0px;"/><path d="M444.52,39.92c6.97-.07,13.39,3.81,16.57,10.01l9.93-5.66c-8.39-14.62-27.05-19.66-41.66-11.27-14.62,8.39-19.66,27.05-11.27,41.66,8.39,14.62,27.05,19.66,41.66,11.27,4.69-2.69,8.57-6.58,11.27-11.27l-9.93-5.65c-3.19,6.2-9.6,10.07-16.57,10-11.01,0-18.79-8.63-18.79-19.55s7.78-19.55,18.79-19.55Z" style="fill:#000064; stroke-width:0px;"/><path d="M546.63,45.73c-5.73,0-9.93,1.9-12.53,5.88v-4.74h-10.84v42.01h10.84v-22.69c0-6.95,3.59-10.39,9.25-10.39,5.09,0,8.32,2.98,8.32,8.63v24.41h10.84v-25.79c0-5.42-1.44-9.62-4.58-12.76-2.97-3.02-7.06-4.68-11.3-4.58Z" style="fill:#000064; stroke-width:0px;"/><path d="M593.22,45.73c-5.73,0-9.93,1.9-12.53,5.88v-4.74h-10.84v42.01h10.84v-22.69c0-6.95,3.59-10.39,9.25-10.39,5.04,0,8.32,2.98,8.32,8.63v24.41h10.84v-25.79c0-5.42-1.44-9.62-4.58-12.76-2.97-3.02-7.06-4.68-11.3-4.58Z" style="fill:#000064; stroke-width:0px;"/><path d="M118.15,49.61h-45.6c-5.45-7.26-15.75-8.73-23.02-3.28-7.26,5.45-8.73,15.75-3.28,23.02,5.45,7.26,15.75,8.73,23.02,3.28,1.24-.93,2.35-2.04,3.28-3.28h23.57c-5.44,20.27-26.29,32.29-46.56,26.85-20.27-5.44-32.29-26.29-26.85-46.56,5.44-20.27,26.29-32.29,46.56-26.85,9.75,2.62,18.05,9,23.09,17.75l18.69-10.74C94.63,1.33,58.26-8.45,29.79,7.96,1.33,24.37-8.45,60.74,7.96,89.21c16.41,28.47,52.78,38.24,81.25,21.83,21.54-12.42,33.09-36.92,28.95-61.43h-.01Z" style="fill:#000064; stroke-width:0px;"/></svg>