<svg id="a" xmlns="http://www.w3.org/2000/svg" viewBox="0 0 571 226" width="571px" height="226px"><path d="M344.52,49.93h-45.88c-5.48-7.31-15.85-8.79-23.16-3.3-7.31,5.48-8.78,15.86-3.3,23.16,5.48,7.31,15.85,8.79,23.16,3.3,1.25-.94,2.36-2.05,3.3-3.3h23.72c-5.48,20.4-26.45,32.5-46.85,27.02-20.4-5.48-32.49-26.46-27.02-46.86,5.48-20.4,26.45-32.5,46.85-27.02,9.81,2.63,18.16,9.06,23.23,17.87l18.8-10.81c-16.51-28.65-53.11-38.49-81.75-21.97-28.64,16.51-38.48,53.12-21.97,81.77,16.51,28.65,53.11,38.49,81.75,21.97,21.67-12.5,33.29-37.15,29.13-61.83h-.01Z" style="fill:#000064; stroke-width:0px;"/><path d="M157.61,181.37c-5.93,0-10.53,2-13.68,6.14v-21.92h-10.88v59.19h10.91v-4.92c3.15,4.15,7.76,6.14,13.68,6.14,5.55.07,10.85-2.29,14.52-6.45,8.09-9.01,8.09-22.67,0-31.68-3.68-4.17-8.99-6.54-14.55-6.5ZM163.9,212.27c-2.21,2.22-5.24,3.42-8.37,3.31-3.11.12-6.13-1.08-8.3-3.31-2.22-2.3-3.42-5.41-3.31-8.61-.26-6.32,4.65-11.65,10.96-11.91.23,0,.45-.01.68,0,3.15-.13,6.2,1.1,8.37,3.39,2.21,2.28,3.43,5.35,3.39,8.53.12,3.21-1.11,6.33-3.38,8.61h-.04Z" style="fill:#000064; stroke-width:0px;"/><path d="M31.06,203.27h17.03c-2.34,6.65-8.35,11.61-17.07,11.61-11.26,0-19.21-8.68-19.21-19.68s7.88-19.68,18.88-19.68c7.04-.07,13.52,3.82,16.76,10.07l9.86-5.67c-8.48-14.69-27.26-19.72-41.94-11.24-14.69,8.48-19.72,27.27-11.24,41.96,5.48,9.5,15.61,15.35,26.57,15.36,16.98,0,29.97-12.67,29.97-29.9v-3.07h-29.58l-.02,10.24Z" style="fill:#000064; stroke-width:0px;"/><path d="M105.23,181.37c-12.17.18-21.89,10.2-21.71,22.37.18,12.17,10.19,21.89,22.36,21.71,12.17-.18,21.89-10.2,21.71-22.37-.09-5.73-2.4-11.21-6.46-15.26-4.19-4.24-9.94-6.57-15.91-6.45ZM113.42,212.03c-2.15,2.2-5.12,3.4-8.19,3.31-3.06.05-6.02-1.14-8.19-3.31-2.18-2.22-3.33-5.26-3.15-8.37-.1-3.09,1.02-6.1,3.12-8.37,2.12-2.24,5.11-3.45,8.19-3.31,3.06-.05,6.02,1.14,8.19,3.31,2.2,2.22,3.37,5.25,3.22,8.37.12,3.1-1.02,6.12-3.15,8.37h-.04Z" style="fill:#000064; stroke-width:0px;"/><rect x="66.58" y="165.61" width="10.91" height="59.19" style="fill:#000064; stroke-width:0px;"/><path d="M215.95,187.51c-3.31-4.15-7.84-6.14-13.76-6.14-5.54-.05-10.84,2.3-14.52,6.45-4.02,4.28-6.18,9.97-6,15.84-.14,5.86,2.01,11.54,6,15.84,3.66,4.18,8.97,6.53,14.52,6.45,5.92,0,10.45-2,13.76-6.14v5h10.91v-42.28h-10.91v5ZM212.56,212.27c-4.72,4.4-12.03,4.4-16.74,0-4.31-4.9-4.31-12.24,0-17.14,2.19-2.26,5.23-3.49,8.37-3.39,3.15-.12,6.19,1.11,8.37,3.39,2.24,2.26,3.47,5.34,3.39,8.53.11,3.22-1.14,6.35-3.44,8.61h.05Z" style="fill:#000064; stroke-width:0px;"/><path d="M334.16,181.37c-12.24.11-22.07,10.13-21.95,22.37s10.13,22.07,22.36,21.96c12.24-.11,22.07-10.13,21.95-22.37-.05-5.83-2.4-11.4-6.53-15.51-4.16-4.24-9.89-6.58-15.83-6.45ZM342.34,212.03c-2.14,2.21-5.11,3.41-8.19,3.31-3.08.12-6.06-1.08-8.19-3.31-2.18-2.24-3.37-5.25-3.31-8.37-.11-3.13,1.09-6.16,3.31-8.37,4.53-4.41,11.75-4.41,16.28,0,4.39,4.72,4.39,12.03,0,16.75h.09Z" style="fill:#000064; stroke-width:0px;"/><path d="M522.43,215.12c-3.04.1-6-1.04-8.19-3.15-2.17-2.2-3.32-5.22-3.15-8.3,0-6.77,4.77-11.61,11.26-11.61,4.03-.12,7.77,2.1,9.6,5.69l9.38-5.46c-3.45-6.69-10.68-10.91-18.9-10.91-5.98-.18-11.77,2.13-15.98,6.38-4.23,4.19-6.51,9.96-6.3,15.91-.15,5.92,2.12,11.64,6.3,15.84,8.83,8.7,23.03,8.59,31.73-.24,1.27-1.29,2.38-2.73,3.31-4.29l-9.37-5.34c-1.69,3.42-5.3,5.5-9.68,5.5Z" style="fill:#000064; stroke-width:0px;"/><path d="M475.64,181.37c-6.54,0-11.84,2.05-16.07,6.38-8.33,9.01-8.29,22.93.08,31.9,4.23,4.23,9.84,6.3,16.83,6.3,8.08,0,14.33-3.07,18.42-9.07l-8.76-5.07c-2.05,2.85-5.3,4.23-9.46,4.23-6.6,0-10.52-2.61-11.91-7.92h31.82c.3-1.47.45-2.96.46-4.45.15-5.9-2.04-11.61-6.07-15.91-3.94-4.26-9.54-6.58-15.34-6.38ZM464.56,199.67c1.24-5.39,5.23-8.54,11.07-8.54,5.13-.18,9.6,3.47,10.45,8.54h-21.52Z" style="fill:#000064; stroke-width:0px;"/><path d="M571,192.97v-10.45h-9.53v-11.8l-10.91,3.31v8.53h-7.3v10.45h7.3v17.61c0,9.99,4.09,14.6,14.75,14.6,1.9-.03,3.8-.15,5.69-.38v-9.92c-1.23.08-2.3.08-3.31.08-4.09,0-6.22-.77-6.22-4.38v-17.61l9.53-.03Z" style="fill:#000064; stroke-width:0px;"/><rect x="234.57" y="165.61" width="10.91" height="59.19" style="fill:#000064; stroke-width:0px;"/><path d="M282.75,175.52c7.02-.07,13.47,3.83,16.67,10.07l9.99-5.69c-8.45-14.71-27.21-19.79-41.92-11.34-14.71,8.45-19.78,27.22-11.34,41.93,8.45,14.71,27.21,19.79,41.92,11.34,4.72-2.71,8.63-6.62,11.34-11.34l-9.99-5.68c-3.21,6.24-9.66,10.13-16.67,10.06-11.07,0-18.9-8.68-18.9-19.68s7.83-19.68,18.9-19.68Z" style="fill:#000064; stroke-width:0px;"/><path d="M385.5,181.37c-5.76,0-9.99,1.91-12.61,5.92v-4.77h-10.91v42.28h10.91v-22.83c0-6.99,3.61-10.45,9.3-10.45,5.12,0,8.37,3,8.37,8.68v24.57h10.91v-25.95c0-5.46-1.45-9.69-4.61-12.84-2.99-3.04-7.11-4.71-11.37-4.61Z" style="fill:#000064; stroke-width:0px;"/><path d="M432.37,181.37c-5.76,0-9.99,1.91-12.61,5.92v-4.77h-10.91v42.28h10.91v-22.83c0-6.99,3.61-10.45,9.3-10.45,5.07,0,8.37,3,8.37,8.68v24.57h10.91v-25.95c0-5.46-1.45-9.69-4.61-12.84-2.99-3.04-7.11-4.71-11.37-4.61Z" style="fill:#000064; stroke-width:0px;"/></svg>